<svg id="visual" viewBox="0 0 2000 370" width="2000" height="370" xmlns="http://www.w3.org/2000/svg" xmlns:xlink="http://www.w3.org/1999/xlink" version="1.1"><rect x="0" y="0" width="2000" height="370" fill="#e2e2e2"></rect><path d="M0 192L286 246L571 198L857 212L1143 198L1429 227L1714 234L2000 209L2000 371L1714 371L1429 371L1143 371L857 371L571 371L286 371L0 371Z" fill="#75a147"></path><path d="M0 234L286 258L571 232L857 244L1143 243L1429 208L1714 260L2000 209L2000 371L1714 371L1429 371L1143 371L857 371L571 371L286 371L0 371Z" fill="#62863a"></path><path d="M0 268L286 304L571 293L857 255L1143 248L1429 272L1714 271L2000 257L2000 371L1714 371L1429 371L1143 371L857 371L571 371L286 371L0 371Z" fill="#4e6c2e"></path><path d="M0 327L286 318L571 332L857 319L1143 323L1429 291L1714 343L2000 318L2000 371L1714 371L1429 371L1143 371L857 371L571 371L286 371L0 371Z" fill="#3c5422"></path></svg>