<svg id="visual" viewBox="0 0 2000 200" width="2000" height="200" xmlns="http://www.w3.org/2000/svg" xmlns:xlink="http://www.w3.org/1999/xlink" version="1.1"><path d="M0 108L41.7 99.7C83.3 91.3 166.7 74.7 250 67C333.3 59.3 416.7 60.7 500 75.2C583.3 89.7 666.7 117.3 750 130.2C833.3 143 916.7 141 1000 134C1083.3 127 1166.7 115 1250 102C1333.3 89 1416.7 75 1500 80.3C1583.3 85.7 1666.7 110.3 1750 122.8C1833.3 135.3 1916.7 135.7 1958.3 135.8L2000 136L2000 201L1958.3 201C1916.7 201 1833.3 201 1750 201C1666.7 201 1583.3 201 1500 201C1416.7 201 1333.3 201 1250 201C1166.7 201 1083.3 201 1000 201C916.7 201 833.3 201 750 201C666.7 201 583.3 201 500 201C416.7 201 333.3 201 250 201C166.7 201 83.3 201 41.7 201L0 201Z" fill="#e2e2e2" stroke-linecap="round" stroke-linejoin="miter"></path></svg>